<svg width="19" height="18" viewBox="0 0 19 18" fill="none" xmlns="http://www.w3.org/2000/svg">
<path fill-rule="evenodd" clip-rule="evenodd" d="M11.6922 12.6064C10.5236 13.4816 9.07234 14 7.5 14C3.63401 14 0.5 10.866 0.5 7C0.5 3.13401 3.63401 0 7.5 0C11.366 0 14.5 3.13401 14.5 7C14.5 8.57234 13.9816 10.0236 13.1064 11.1922L18.2071 16.2929C18.5976 16.6834 18.5976 17.3166 18.2071 17.7071C17.8166 18.0976 17.1834 18.0976 16.7929 17.7071L11.6922 12.6064ZM12.5 7C12.5 9.76142 10.2614 12 7.5 12C4.73858 12 2.5 9.76142 2.5 7C2.5 4.23858 4.73858 2 7.5 2C10.2614 2 12.5 4.23858 12.5 7Z" fill="black" fill-opacity="0.95"/>
</svg>
